<svg xmlns="http://www.w3.org/2000/svg" viewBox="0 0 18 20"><style>.cls-1{fill-rule:evenodd;clip-rule:evenodd;fill:#fff;}</style><path class="cls-1" d="M17.7 2.7c-.1.4-.3.8-.7 1-.3.3-.8.3-1.4.3-2.8 0-5.6-.1-8.4-.1-.3 1.3-.5 2.6-.8 3.9h5.1c1.3 0 2.7-.1 2.9 1 .1.3 0 .8-.1 1.1-.2.7-.5 1.2-1.1 1.4-.3.1-.7.1-1.2.1H5.6l-.9 4.2c2.9 0 5.6-.1 8.4-.1 1.1 0 2 .4 1.8 1.5-.1.5-.2.9-.4 1.3s-.5.7-.9.8c-.4.1-1 .1-1.6.1H8.6c-2.3 0-4.4.1-6.7.1-1.1 0-1.8-.5-2-1.4-.1-.5 0-1.1.1-1.5L3 2.3c.1-.5.2-.9.4-1.3.3-.6.8-1 1.4-1.1.8 0 1.7.1 2.6.1h1.7c1.7 0 3.3.1 5 .1h1.7c1.1 0 2.1.1 2.3 1.1 0 .6-.2 1.1-.4 1.5z"/></svg>