<svg xmlns="http://www.w3.org/2000/svg" viewBox="0 0 50 40.6"><style>.cls-1{isolation:isolate;}.cls-2{fill:#fff;mix-blend-mode:multiply;}</style><g class="cls-1"><path class="cls-2" d="M50 4.8a20.5 20.5 0 0 1-5.9 1.6A10.3 10.3 0 0 0 48.6.8a20.5 20.5 0 0 1-6.5 2.5 10.3 10.3 0 0 0-17.5 9.4A29.1 29.1 0 0 1 3.5 1.9a10.3 10.3 0 0 0 3.2 13.7A10.2 10.2 0 0 1 2 14.3a10.3 10.3 0 0 0 8.2 10.1 10.3 10.3 0 0 1-2.7.4l-1.9-.2a10.3 10.3 0 0 0 9.6 7.1 20.6 20.6 0 0 1-12.8 4.5H0a29 29 0 0 0 15.7 4.6c18.9 0 29.2-15.6 29.2-29.2v-1.3A20.8 20.8 0 0 0 50 4.8z"/></g></svg>